# xmcd CD database file
# Copyright (C) 1993-1998 Ti Kan
# 
# Track frame offsets:
#     183
#     15940
#     20170
#     37173
#     44860
#     62735
#     79180
#     95350
#     109003
#     124978
#     143435
#     161795
#     175623
#     190383
#     204453
#     208440
# 
# Disc length: 3076 seconds
# 
# Revision: 1
# Processed by: cddbd v1.4b41PL1 Copyright (c) Steve Scherf et al.
# Submitted via: DiscPlay 4.0.4
# 
DISCID=e80c0210
DTITLE=Paul Kennerley - The Legend of Jesse James
DYEAR=1900
DGENRE=
TTITLE0=Ride of the Redlegs
TTITLE1=Quantrill's Guerillas
TTITLE2=Six Gun Shooting
TTITLE3=Have You Heard the News
TTITLE4=Heaven Ain't Ready For You Yet
TTITLE5=Help Him, Jesus
TTITLE6=The Old Clay County
TTITLE7=Riding With Jesse James
TTITLE8=Hunt Them Down
TTITLE9=Wish We Were Back In Missouri
TTITLE10=Northfield: The Plan
TTITLE11=Northfield: The Disaster
TTITLE12=High Walls
TTITLE13=The Death of Me
TTITLE14=The Plot
TTITLE15=One More Shot
EXTD=
EXTT0=
EXTT1=
EXTT2=
EXTT3=
EXTT4=
EXTT5=
EXTT6=
EXTT7=
EXTT8=
EXTT9=
EXTT10=
EXTT11=
EXTT12=
EXTT13=
EXTT14=
EXTT15=
PLAYORDER=
